<?xml version="1.0" standalone="no"?>
<!DOCTYPE svg PUBLIC "-//W3C//DTD SVG 20010904//EN"
 "http://www.w3.org/TR/2001/REC-SVG-20010904/DTD/svg10.dtd">
<svg version="1.0" xmlns="http://www.w3.org/2000/svg"
 width="528.000000pt" height="424.000000pt" viewBox="0 0 528.000000 424.000000"
 preserveAspectRatio="xMidYMid meet">

<g transform="translate(0.000000,424.000000) scale(0.100000,-0.100000)"
fill="#000000" stroke="none">
<path d="M814 2545 c-54 -27 -131 -98 -174 -160 -48 -71 -63 -126 -58 -212 6
-93 28 -140 106 -224 55 -59 104 -90 144 -88 18 1 17 3 -9 9 -72 17 -186 143
-218 241 -53 158 68 367 253 440 27 10 38 18 26 19 -11 0 -42 -11 -70 -25z"/>
<path d="M978 2557 c13 -6 35 -34 49 -61 37 -73 42 -173 13 -291 -31 -129
-146 -405 -169 -405 -17 0 -127 -91 -153 -128 -35 -48 -37 -92 -5 -92 12 0 32
8 43 18 32 26 111 128 133 171 17 32 31 43 90 67 39 16 71 32 71 36 0 4 -26
-4 -57 -17 -32 -13 -59 -22 -61 -21 -1 2 15 41 36 87 103 221 142 402 111 513
-15 53 -54 111 -85 125 -32 14 -47 13 -16 -2z m-143 -833 c-34 -59 -103 -134
-121 -134 -40 0 13 92 87 150 29 22 54 38 57 36 2 -3 -8 -26 -23 -52z"/>
<path d="M3459 2531 c-79 -47 -170 -152 -199 -228 -25 -68 -26 -147 0 -215 41
-110 165 -229 234 -227 l31 1 -32 8 c-62 14 -155 106 -204 200 -36 68 -34 185
4 261 48 99 149 194 242 227 23 8 25 11 9 11 -11 1 -49 -16 -85 -38z"/>
<path d="M3635 2561 c69 -29 108 -163 85 -293 -17 -95 -66 -239 -120 -353 -39
-85 -54 -106 -86 -125 -52 -33 -132 -108 -150 -142 -24 -46 -19 -68 16 -68 38
0 93 55 156 155 43 69 48 74 114 101 39 16 70 32 70 36 0 7 -20 0 -118 -39 -8
-3 4 30 26 73 81 162 141 388 127 481 -14 92 -76 184 -123 182 -14 0 -13 -2 3
-8z m-140 -843 c-29 -46 -104 -128 -117 -128 -17 0 -6 39 22 78 29 40 109 107
117 98 3 -2 -8 -24 -22 -48z"/>
<path d="M4337 2470 c-80 -90 -194 -262 -271 -410 -64 -123 -66 -125 -113
-142 -26 -9 -63 -17 -81 -18 l-33 0 20 26 c23 29 28 83 9 102 -19 19 -57 14
-83 -12 -23 -23 -24 -30 -19 -88 4 -35 8 -65 10 -67 2 -2 16 2 31 9 16 7 44
15 63 16 20 2 55 10 79 19 43 15 43 15 37 -8 -4 -12 -9 -45 -13 -73 -7 -68 7
-94 52 -94 29 0 50 15 144 101 89 81 111 96 111 79 0 -56 64 -110 112 -95 26
9 217 115 205 115 -4 0 -52 -22 -107 -50 -118 -59 -152 -63 -170 -20 -7 16 -9
41 -6 55 5 20 13 25 36 25 19 0 41 11 62 30 32 29 32 31 14 45 -11 8 -27 15
-35 15 -22 0 -80 -37 -87 -55 -4 -8 -29 -33 -58 -56 -28 -22 -73 -62 -101 -88
-113 -105 -145 -117 -145 -51 0 75 64 218 135 301 48 56 220 310 249 367 10
18 16 45 14 60 -3 25 -6 23 -61 -38z m7 -67 c-66 -115 -243 -361 -204 -283 49
95 211 330 228 330 2 0 -9 -21 -24 -47z m-496 -412 c4 -26 -16 -81 -29 -81
-13 0 -11 14 3 28 17 17 0 28 -22 14 -18 -11 -20 -9 -20 12 0 25 36 59 55 53
5 -2 11 -14 13 -26z m552 3 c0 -11 -34 -33 -50 -33 -10 0 -8 6 9 19 23 20 41
26 41 14z m-590 -98 c0 -3 -4 -8 -10 -11 -5 -3 -10 -1 -10 4 0 6 5 11 10 11 6
0 10 -2 10 -4z"/>
<path d="M2869 2461 c-84 -33 -202 -136 -222 -194 -6 -19 -56 12 -73 45 -8 15
-14 41 -14 58 0 16 -4 30 -10 30 -5 0 -10 -16 -10 -35 0 -37 45 -99 81 -110
14 -5 19 -15 19 -39 0 -20 8 -40 20 -51 26 -24 25 -28 -10 -43 -49 -22 -133
-106 -165 -164 -24 -44 -30 -65 -30 -120 0 -62 2 -70 30 -98 43 -43 90 -49
151 -19 109 55 197 169 197 255 l0 42 55 5 c108 11 213 86 228 163 14 75 -38
114 -105 78 -19 -10 -39 -26 -44 -35 -14 -23 0 -69 21 -68 10 0 12 3 5 6 -40
16 15 93 65 93 57 0 52 -80 -8 -140 -55 -55 -137 -83 -220 -77 -73 6 -113 -11
-150 -63 -33 -47 -3 -47 41 -1 26 26 49 41 64 41 22 0 25 -4 25 -36 0 -86 -80
-191 -185 -240 -64 -31 -90 -30 -122 2 -23 23 -25 31 -21 88 6 74 21 105 82
173 64 71 130 113 178 113 53 0 48 16 -9 26 -37 7 -51 15 -60 36 -21 42 -9 53
55 54 136 1 292 106 292 196 0 50 -66 62 -151 29z m134 -12 c15 -24 -21 -87
-71 -126 -57 -43 -141 -73 -208 -73 -53 0 -54 1 -43 21 63 119 283 240 322
178z"/>
<path d="M1755 2015 c-27 -26 -31 -46 -14 -76 11 -22 8 -26 -49 -66 -17 -12
-25 -13 -37 -3 -10 8 -31 10 -66 5 -50 -7 -51 -7 -44 16 16 49 76 116 94 104
6 -3 11 -15 11 -26 0 -23 18 -25 27 -4 8 21 -25 55 -54 55 -12 0 -40 -15 -60
-34 -21 -18 -56 -43 -79 -54 -22 -11 -78 -43 -125 -71 -47 -28 -96 -51 -111
-51 -26 0 -28 3 -28 38 0 21 9 55 20 76 10 22 17 43 14 47 -9 15 -71 21 -93
10 -44 -24 -72 -131 -34 -131 9 0 25 7 35 17 17 15 18 15 18 -10 0 -30 41 -67
75 -67 12 0 62 25 111 56 170 108 161 105 144 58 -17 -44 3 -57 72 -50 65 8
73 -2 42 -50 -33 -50 -2 -37 51 21 43 48 56 57 64 46 8 -13 14 -13 38 -1 15 7
44 14 63 16 19 1 59 11 88 22 l53 20 9 -24 c5 -13 12 -24 16 -24 3 0 38 29 76
65 39 36 73 64 75 61 2 -2 -5 -22 -16 -45 -34 -65 -23 -131 21 -131 22 0 212
103 223 120 12 19 -11 9 -105 -45 -92 -53 -140 -68 -140 -42 0 6 14 41 29 77
22 47 27 69 20 82 -5 10 -15 18 -21 18 -6 0 -45 -30 -87 -67 -70 -64 -74 -66
-53 -30 12 21 22 45 22 53 0 27 -30 14 -54 -24 -19 -30 -35 -42 -76 -55 -55
-18 -100 -22 -100 -9 0 4 7 16 15 26 18 24 20 77 3 94 -19 19 -57 14 -83 -13z
m63 -12 c16 -27 -16 -109 -34 -90 -4 4 -1 13 6 22 17 21 4 32 -20 17 -17 -11
-20 -10 -20 8 0 21 33 60 50 60 5 0 13 -7 18 -17z m-608 -39 c0 -12 -61 -94
-70 -94 -14 0 8 51 32 78 20 21 38 29 38 16z m570 -68 c0 -3 -4 -8 -10 -11 -5
-3 -10 -1 -10 4 0 6 5 11 10 11 6 0 10 -2 10 -4z"/>
<path d="M4741 2009 c-56 -34 -68 -56 -61 -105 6 -41 33 -84 52 -84 4 0 -1 9
-13 21 -14 14 -19 30 -17 56 3 33 6 37 49 49 25 8 54 23 65 35 18 20 18 21 -1
35 -25 19 -34 18 -74 -7z m40 -29 c-13 -11 -31 -20 -40 -20 -12 1 -11 5 8 20
13 11 31 20 40 20 12 -1 11 -5 -8 -20z"/>
<path d="M4977 1925 c-32 -13 -82 -38 -113 -55 -30 -18 -67 -36 -82 -41 -26
-9 -26 -9 4 -5 17 3 56 19 85 37 30 18 86 45 124 60 39 16 63 28 55 28 -8 0
-41 -11 -73 -24z"/>
</g>
</svg>
